HIERARCHY
ROOT hip
{
  OFFSET 0 0 0
  CHANNELS 6 Xposition Yposition Zposition Zrotation Yrotation Xrotation
  JOINT abdomen
  {
    OFFSET 0 20.6881 -0.73152
    CHANNELS 3 Zrotation Xrotation Yrotation
    JOINT chest
    {
      OFFSET 0 11.7043 -0.48768
      CHANNELS 3 Zrotation Xrotation Yrotation
      JOINT neck
      {
        OFFSET 0 22.1894 -2.19456
        CHANNELS 3 Zrotation Xrotation Yrotation
        JOINT head
        {
          OFFSET -0.24384 7.07133 1.2192
          CHANNELS 3 Zrotation Xrotation Yrotation
          JOINT leftEye
          {
            OFFSET 4.14528 8.04674 8.04672
            CHANNELS 3 Zrotation Xrotation Yrotation
            End Site
            {
              OFFSET 1 0 0
            }
          }
          JOINT rightEye
          {
            OFFSET -3.6576 8.04674 8.04672
            CHANNELS 3 Zrotation Xrotation Yrotation
            End Site
            {
              OFFSET 1 0 0
            }
          }
        }
      }
      JOINT rCollar
      {
        OFFSET -2.68224 19.2634 -4.8768
        CHANNELS 3 Zrotation Xrotation Yrotation
        JOINT rShldr
        {
          OFFSET -8.77824 -1.95073 1.46304
          CHANNELS 3 Zrotation Xrotation Yrotation
          JOINT rForeArm
          {
            OFFSET -28.1742 -1.7115 0.48768
            CHANNELS 3 Zrotation Xrotation Yrotation
            JOINT rHand
            {
              OFFSET -22.5879 0.773209 7.07136
              CHANNELS 3 Zrotation Xrotation Yrotation
              JOINT rThumb1
              {
                OFFSET -1.2192 -0.487915 3.41376
                CHANNELS 3 Zrotation Xrotation Yrotation
                JOINT rThumb2
                {
                  OFFSET -3.37035 -0.52449 3.41376
                  CHANNELS 3 Zrotation Xrotation Yrotation
                  End Site
                  {
                    OFFSET -1.78271 -1.18214 1.43049
                  }
                }
              }
              JOINT rIndex1
              {
                OFFSET -7.75947 0.938293 5.60832
                CHANNELS 3 Zrotation Xrotation Yrotation
                JOINT rIndex2
                {
                  OFFSET -2.54057 -0.884171 1.56538
                  CHANNELS 3 Zrotation Xrotation Yrotation
                  End Site
                  {
                    OFFSET -1.62519 -0.234802 1.16502
                  }
                }
              }
              JOINT rMid1
              {
                OFFSET -8.24714 1.18213 3.41376
                CHANNELS 3 Zrotation Xrotation Yrotation
                JOINT rMid2
                {
                  OFFSET -3.10165 -0.590103 1.0647
                  CHANNELS 3 Zrotation Xrotation Yrotation
                  End Site
                  {
                    OFFSET -2.48547 -0.328903 0.83742
                  }
                }
              }
              JOINT rRing1
              {
                OFFSET -8.82822 0.546677 1.51678
                CHANNELS 3 Zrotation Xrotation Yrotation
                JOINT rRing2
                {
                  OFFSET -2.60934 -0.819778 -0.0198488
                  CHANNELS 3 Zrotation Xrotation Yrotation
                  End Site
                  {
                    OFFSET -2.33842 -0.294052 0.168128
                  }
                }
              }
              JOINT rPinky1
              {
                OFFSET -8.27202 -0.0477905 -0.4584
                CHANNELS 3 Zrotation Xrotation Yrotation
                JOINT rPinky2
                {
                  OFFSET -1.82734 -0.647385 -0.700984
                  CHANNELS 3 Zrotation Xrotation Yrotation
                  End Site
                  {
                    OFFSET -1.69225 -0.51767 -0.607171
                  }
                }
              }
            }
          }
        }
      }
      JOINT lCollar
      {
        OFFSET 2.68224 19.2634 -4.8768
        CHANNELS 3 Zrotation Xrotation Yrotation
        JOINT lShldr
        {
          OFFSET 8.77824 -1.95073 1.46304
          CHANNELS 3 Zrotation Xrotation Yrotation
          JOINT lForeArm
          {
            OFFSET 28.1742 -1.7115 0.48768
            CHANNELS 3 Zrotation Xrotation Yrotation
            JOINT lHand
            {
              OFFSET 22.5879 0.773209 7.07136
              CHANNELS 3 Zrotation Xrotation Yrotation
              JOINT lThumb1
              {
                OFFSET 1.2192 -0.487915 3.41376
                CHANNELS 3 Zrotation Xrotation Yrotation
                JOINT lThumb2
                {
                  OFFSET 3.37035 -0.52449 3.41376
                  CHANNELS 3 Zrotation Xrotation Yrotation
                  End Site
                  {
                    OFFSET 1.78271 -1.18214 1.43049
                  }
                }
              }
              JOINT lIndex1
              {
                OFFSET 7.75947 0.938293 5.60832
                CHANNELS 3 Zrotation Xrotation Yrotation
                JOINT lIndex2
                {
                  OFFSET 2.54057 -0.884171 1.56538
                  CHANNELS 3 Zrotation Xrotation Yrotation
                  End Site
                  {
                    OFFSET 1.62519 -0.234802 1.16502
                  }
                }
              }
              JOINT lMid1
              {
                OFFSET 8.24714 1.18213 3.41376
                CHANNELS 3 Zrotation Xrotation Yrotation
                JOINT lMid2
                {
                  OFFSET 3.10165 -0.590103 1.0647
                  CHANNELS 3 Zrotation Xrotation Yrotation
                  End Site
                  {
                    OFFSET 2.48547 -0.328903 0.83742
                  }
                }
              }
              JOINT lRing1
              {
                OFFSET 8.82822 0.546677 1.51678
                CHANNELS 3 Zrotation Xrotation Yrotation
                JOINT lRing2
                {
                  OFFSET 2.60934 -0.819778 -0.0198488
                  CHANNELS 3 Zrotation Xrotation Yrotation
                  End Site
                  {
                    OFFSET 2.33842 -0.294052 0.168128
                  }
                }
              }
              JOINT lPinky1
              {
                OFFSET 8.27202 -0.0477905 -0.4584
                CHANNELS 3 Zrotation Xrotation Yrotation
                JOINT lPinky2
                {
                  OFFSET 1.82734 -0.647385 -0.700984
                  CHANNELS 3 Zrotation Xrotation Yrotation
                  End Site
                  {
                    OFFSET 1.69225 -0.51767 -0.607171
                  }
                }
              }
            }
          }
        }
      }
    }
  }
  JOINT rButtock
  {
    OFFSET -8.77824 4.35084 1.2192
    CHANNELS 3 Zrotation Xrotation Yrotation
    JOINT rThigh
    {
      OFFSET 0 -1.70687 -2.19456
      CHANNELS 3 Zrotation Xrotation Yrotation
      JOINT rShin
      {
        OFFSET 0 -36.8199 0.73152
        CHANNELS 3 Zrotation Xrotation Yrotation
        JOINT rFoot
        {
          OFFSET 0.73152 -45.1104 -5.12064
          CHANNELS 3 Zrotation Xrotation Yrotation
          End Site
          {
            OFFSET -1.1221 -3.69964 12.103
          }
        }
      }
    }
  }
  JOINT lButtock
  {
    OFFSET 8.77824 4.35084 1.2192
    CHANNELS 3 Zrotation Xrotation Yrotation
    JOINT lThigh
    {
      OFFSET 0 -1.70687 -2.19456
      CHANNELS 3 Zrotation Xrotation Yrotation
      JOINT lShin
      {
        OFFSET 0 -36.8199 0.73152
        CHANNELS 3 Zrotation Xrotation Yrotation
        JOINT lFoot
        {
          OFFSET -0.73152 -45.1104 -5.12064
          CHANNELS 3 Zrotation Xrotation Yrotation
          End Site
          {
            OFFSET 1.1221 -3.69964 12.103
          }
        }
      }
    }
  }
}
MOTION
Frames:	6
Frame Time:	0.00833333
88.0737 84.8839 -51.4513 0.0 0.0 0.0 -0.194077 -0.000752048 -0.00553942 -0.0535363 -0.00112971 -0.00927448 -3.47819e-16 -7.95139e-16 8.69683e-17 -1.05604e-15 3.18055e-15 2.60905e-16 -0.0 0.0 0.0 -0.0 0.0 0.0 -2.00109e-16 1.35888e-18 1.98785e-16 -8.25519e-16 8.69683e-17 1.98785e-15 -6.65432e-14 2.06736e-14 2.8625e-14 -7.32789e-13 -1.04859e-14 1.62208e-13 -1.73525e-12 1.81651e-14 4.23014e-13 -3.00125e-12 2.8625e-14 7.25962e-13 -1.72784e-12 2.10712e-14 4.23014e-13 7.73091 5.47488 0.417314 -1.73355e-12 1.92821e-14 4.23014e-13 2.90554 0.965183 0.102902 -1.72274e-12 1.89839e-14 4.25399e-13 10.2786 0.731801 0.0259123 -1.73519e-12 1.63003e-14 4.29375e-13 2.22167 -0.733487 -0.20892 -1.97471e-16 9.70628e-19 -9.93923e-17 -6.32927e-15 2.85753e-16 -1.98785e-16 -6.26669e-14 -1.8487e-14 2.22639e-14 -7.3505e-13 1.97542e-14 1.81292e-13 -1.7307e-12 -1.69936e-15 4.23014e-13 -2.98932e-12 -6.36111e-15 7.35503e-13 -1.73976e-12 3.57812e-15 4.35736e-13 -7.73091 5.47488 -0.417314 -1.73052e-12 -9.93923e-16 4.16653e-13 -2.90554 0.965183 -0.102902 -1.74263e-12 -6.95746e-16 4.22219e-13 -10.2786 0.731801 -0.0259123 -1.7344e-12 -3.57812e-15 4.13472e-13 -2.22167 -0.733487 0.20892 -2.03217e-16 0.0 -3.88251e-19 0.355853 -2.82714 -0.0340694 -0.00665506 -0.431854 -0.0584472 -0.502543 3.25829 0.123799 2.03217e-16 0.0 3.88251e-19 -0.651362 -3.58303 0.0525572 0.00446003 0.937454 0.0381205 0.504971 2.64491 -0.111592
85.5567 83.3974 -53.0457 2.6573 -43.0216 1.7844 -0.644036 1.32694 0.0472136 0.235111 -1.59985 0.00775773 -3.08229 -1.70965 -1.4459 3.9696 0.787951 -1.79688 -0.0 0.0 0.0 -0.0 0.0 0.0 3.29865e-14 7.4837e-14 -2.67119e-13 22.2884 3.97497 -0.19644 -4.06749 -1.81883 6.38454 0.0268093 3.6343 0.507065 1.17813e-09 -1.85779e-09 -5.32031e-10 2.02898e-09 -3.21638e-09 -9.34388e-10 1.17814e-09 -1.85779e-09 -5.32037e-10 7.73091 5.47488 0.417314 1.17813e-09 -1.85779e-09 -5.32032e-10 2.90554 0.965183 0.102902 1.17814e-09 -1.85779e-09 -5.32032e-10 10.2786 0.731801 0.0259123 1.17813e-09 -1.85779e-09 -5.3203e-10 2.22167 -0.733487 -0.20892 3.29384e-14 7.48367e-14 -2.67419e-13 -22.0322 6.91157 0.21229 4.32548 -1.98681 -6.73262 -0.0164997 2.8511 -0.398908 9.30305e-10 -1.62359e-09 -3.49022e-10 1.60511e-09 -2.82221e-09 -6.13058e-10 9.30295e-10 -1.62359e-09 -3.49012e-10 -7.73091 5.47488 -0.417314 9.30306e-10 -1.62359e-09 -3.49028e-10 -2.90554 0.965183 -0.102902 9.30295e-10 -1.62359e-09 -3.49024e-10 -10.2786 0.731801 -0.0259123 9.30304e-10 -1.62359e-09 -3.49032e-10 -2.22167 -0.733487 0.20892 -2.03217e-16 0.0 -3.88251e-19 0.747376 -6.79075 0.493802 0.00361277 8.49703 0.0815398 -0.55732 -1.55361 -0.437241 2.03217e-16 0.0 3.88251e-19 -1.75281 -6.50402 -0.837509 -0.000253922 7.52452 -0.0557368 0.433459 -0.546738 -1.19297
85.5499 83.3964 -53.0311 2.632 -43.0968 1.8081 -1.12203 2.73559 0.102203 0.54312 -3.29146 0.0256294 -6.42881 -3.51346 -2.97583 8.20856 1.61856 -3.69379 -0.0 0.0 0.0 -0.0 0.0 0.0 7.15272e-14 1.61016e-13 -5.48304e-13 45.8747 8.16908 -0.410227 -7.92528 -3.66327 13.1477 -0.0153882 7.48516 1.05131 2.36881e-09 -3.78099e-09 -1.11309e-09 4.07903e-09 -6.54579e-09 -1.95369e-09 2.36881e-09 -3.78098e-09 -1.1131e-09 7.73091 5.47488 0.417314 2.36881e-09 -3.78098e-09 -1.1131e-09 2.90554 0.965183 0.102902 2.36882e-09 -3.78098e-09 -1.1131e-09 10.2786 0.731801 0.0259123 2.36881e-09 -3.78098e-09 -1.1131e-09 2.22167 -0.733487 -0.20892 7.14223e-14 1.61016e-13 -5.48605e-13 -45.3864 14.2148 0.45338 8.39551 -3.99664 -13.8778 0.00947093 5.87411 -0.825236 1.87041e-09 -3.34458e-09 -7.31158e-10 3.22691e-09 -5.81308e-09 -1.28352e-09 1.8704e-09 -3.34457e-09 -7.31151e-10 -7.73091 5.47488 -0.417314 1.87041e-09 -3.34457e-09 -7.31163e-10 -2.90554 0.965183 -0.102902 1.8704e-09 -3.34457e-09 -7.3116e-10 -10.2786 0.731801 -0.0259123 1.87041e-09 -3.34458e-09 -7.31167e-10 -2.22167 -0.733487 0.20892 -2.03217e-16 0.0 -3.88251e-19 1.23926 -10.9767 1.06246 -0.0349135 17.9372 0.239334 -0.718507 -6.63709 -1.03863 2.03217e-16 0.0 3.88251e-19 -3.01971 -9.58597 -1.79374 0.0188823 14.4879 -0.158984 0.226358 -3.91097 -2.34581
85.5362 83.3944 -53.018 2.5378 -43.1741 1.8879 -1.5513 3.98231 0.153051 0.815264 -4.7973 0.0419601 -9.50634 -5.11587 -4.35314 12.0569 2.35455 -5.39469 -0.0 0.0 0.0 -0.0 0.0 0.0 9.93598e-14 2.24508e-13 -8.01755e-13 66.9484 11.9243 -0.600868 -11.0074 -5.18601 19.2257 -0.115545 10.8994 1.54603 3.53786e-09 -5.5734e-09 -1.59694e-09 6.09296e-09 -9.64921e-09 -2.80461e-09 3.53786e-09 -5.5734e-09 -1.59696e-09 7.73091 5.47488 0.417314 3.53786e-09 -5.5734e-09 -1.59694e-09 2.90554 0.965183 0.102902 3.53787e-09 -5.5734e-09 -1.59695e-09 10.2786 0.731801 0.0259123 3.53787e-09 -5.5734e-09 -1.59695e-09 2.22167 -0.733487 -0.20892 9.92101e-14 2.24508e-13 -8.02057e-13 -66.2594 20.7335 0.676026 11.6022 -5.63192 -20.2879 0.0707322 8.55164 -1.20868 2.79438e-09 -4.87077e-09 -1.04791e-09 4.8213e-09 -8.46662e-09 -1.84064e-09 2.79436e-09 -4.87077e-09 -1.04791e-09 -7.73091 5.47488 -0.417314 2.79438e-09 -4.87077e-09 -1.04792e-09 -2.90554 0.965183 -0.102902 2.79437e-09 -4.87077e-09 -1.04792e-09 -10.2786 0.731801 -0.0259123 2.79438e-09 -4.87077e-09 -1.04792e-09 -2.22167 -0.733487 0.20892 -2.03217e-16 0.0 -3.88251e-19 1.75614 -14.7133 1.59126 -0.118356 26.3543 0.400446 -0.953286 -11.1734 -1.58856 2.03217e-16 0.0 3.88251e-19 -4.23375 -12.3351 -2.66278 0.0586124 20.6985 -0.2587 -0.0727725 -6.91846 -3.38043
85.5276 83.3949 -52.9949 2.5076 -43.2351 1.8993 -1.85376 4.82419 0.193237 0.995762 -5.83874 0.0543048 -11.7289 -6.22713 -5.33426 14.8247 2.86276 -6.60172 -0.0 0.0 0.0 -0.0 0.0 0.0 1.00423e-13 2.31285e-13 -9.85873e-13 81.6794 14.5831 -0.722364 -12.9795 -6.15977 23.5226 -0.219455 13.2256 1.89282 4.65283e-09 -7.03888e-09 -1.83775e-09 8.01659e-09 -1.21877e-08 -3.2346e-09 4.65283e-09 -7.03888e-09 -1.83777e-09 7.73091 5.47488 0.417314 4.65283e-09 -7.03888e-09 -1.83775e-09 2.90554 0.965183 0.102902 4.65284e-09 -7.03888e-09 -1.83776e-09 10.2786 0.731801 0.0259123 4.65284e-09 -7.03888e-09 -1.83776e-09 2.22167 -0.733487 -0.20892 1.00257e-13 2.31285e-13 -9.86171e-13 -80.8038 25.2923 0.812904 13.6107 -6.64452 -24.774 0.133659 10.3671 -1.47327 3.67801e-09 -5.91001e-09 -1.20122e-09 6.34718e-09 -1.02768e-08 -2.11445e-09 3.678e-09 -5.91001e-09 -1.20121e-09 -7.73091 5.47488 -0.417314 3.67801e-09 -5.91e-09 -1.20122e-09 -2.90554 0.965183 -0.102902 3.67801e-09 -5.91e-09 -1.20122e-09 -10.2786 0.731801 -0.0259123 3.67801e-09 -5.91e-09 -1.20123e-09 -2.22167 -0.733487 0.20892 -2.03217e-16 0.0 -3.88251e-19 2.17549 -17.3311 1.98361 -0.209884 32.2138 0.532021 -1.16731 -14.3459 -1.97736 2.03217e-16 0.0 3.88251e-19 -5.11732 -14.2621 -3.27492 0.100491 25.0272 -0.335035 -0.34403 -9.04577 -4.09224
85.4865 83.3974 -52.981 2.3517 -43.2966 1.9558 -1.97622 5.0926 0.219159 1.04477 -6.22552 0.0611357 -12.6841 -6.65924 -5.75719 16.0568 3.04982 -7.12311 -0.0 0.0 0.0 -0.0 0.0 0.0 5.40388e-14 1.39121e-13 -1.08828e-12 87.5083 15.7134 -0.735957 -13.7471 -6.54195 25.2882 -0.263622 14.0233 2.01422 5.97605e-09 -8.32177e-09 -1.72434e-09 1.03047e-08 -1.44123e-08 -3.05465e-09 5.97605e-09 -8.32177e-09 -1.72436e-09 7.73091 5.47488 0.417314 5.97605e-09 -8.32177e-09 -1.72434e-09 2.90554 0.965183 0.102902 5.97606e-09 -8.32177e-09 -1.72435e-09 10.2786 0.731801 0.0259123 5.97605e-09 -8.32177e-09 -1.72435e-09 2.22167 -0.733487 -0.20892 5.39064e-14 1.3912e-13 -1.08857e-12 -86.4135 27.1094 0.790375 14.3379 -6.99836 -26.5108 0.159624 10.9679 -1.56199 4.72578e-09 -6.34876e-09 -1.09382e-09 8.15866e-09 -1.10498e-08 -1.93858e-09 4.72577e-09 -6.34876e-09 -1.09382e-09 -7.73091 5.47488 -0.417314 4.72578e-09 -6.34876e-09 -1.09383e-09 -2.90554 0.965183 -0.102902 4.72577e-09 -6.34875e-09 -1.09383e-09 -10.2786 0.731801 -0.0259123 4.72578e-09 -6.34875e-09 -1.09383e-09 -2.22167 -0.733487 0.20892 -2.03217e-16 0.0 -3.88251e-19 2.38634 -18.3917 2.15995 -0.254413 34.4899 0.589348 -1.25572 -15.6151 -2.11007 2.03217e-16 0.0 3.88251e-19 -5.44365 -15.0537 -3.50028 0.120451 26.7232 -0.36735 -0.460155 -9.9592 -4.32972
